<svg xmlns="http://www.w3.org/2000/svg" version="1.1" xmlns:xlink="http://www.w3.org/1999/xlink" xmlns:svgjs="http://svgjs.com/svgjs" width="700" height="800" preserveAspectRatio="none" viewBox="0 0 700 800"><g mask="url(&quot;#SvgjsMask1042&quot;)" fill="none"><rect width="700" height="800" x="0" y="0" fill="url(#SvgjsLinearGradient1043)"></rect><path d="M343.04 365.96L359.88 365.96L359.88 404.97L343.04 404.97z" fill="#037b0b"></path><path d="M583.2 485.31L603.86 485.31L603.86 521.8L583.2 521.8z" stroke="#e73635"></path><path d="M172.88 342.5L179.31 342.5L179.31 410.77L172.88 410.77z" stroke="#d3b714"></path><path d="M382.04 47.59 a3.08 3.08 0 1 0 6.16 0 a3.08 3.08 0 1 0 -6.16 0z" fill="#d3b714"></path><path d="M419.11 341.96a19.15 19.15 0 1 0-28.07-26.06z" stroke="#d3b714"></path><path d="M142.36 653.9L174.33 653.9L174.33 685.87L142.36 685.87z" fill="#e73635"></path><path d="M309.26 486.53L375.46 486.53L375.46 552.73L309.26 552.73z" fill="#037b0b"></path><path d="M410.87 649.39 a40.26 40.26 0 1 0 80.52 0 a40.26 40.26 0 1 0 -80.52 0z" fill="#e73635"></path><path d="M219.27 71.87L282.02 71.87L282.02 134.62L219.27 134.62z" fill="#037b0b"></path><path d="M325.02 325.27L391.86 325.27L391.86 373.2L325.02 373.2z" fill="#d3b714"></path><path d="M626.71 469.2L630.14 469.2L630.14 472.63L626.71 472.63z" stroke="#037b0b"></path><path d="M592.72 563.75a64.64 64.64 0 1 0-97.11 85.34z" fill="#d3b714"></path><path d="M620.7 103.41L635.46 103.41L635.46 136.89L620.7 136.89z" fill="#d3b714"></path><path d="M693.04 390.5L725.14 390.5L725.14 426.73L693.04 426.73z" fill="#037b0b"></path><path d="M35.33 424.61L57.65 424.61L57.65 446.93L35.33 446.93z" fill="#e73635"></path></g><defs><mask id="SvgjsMask1042"><rect width="700" height="800" fill="#ffffff"></rect></mask><linearGradient x1="103.57%" y1="96.87%" x2="-3.57%" y2="3.13%" gradientUnits="userSpaceOnUse" id="SvgjsLinearGradient1043"><stop stop-color="rgba(14, 71, 14, 1)" offset="0"></stop><stop stop-color="rgba(33, 207, 25, 1)" offset="1"></stop></linearGradient></defs></svg>